<svg xmlns="http://www.w3.org/2000/svg" xmlns:xlink="http://www.w3.org/1999/xlink" version="1.1" width="1000" height="1000" viewBox="0 0 1000 1000" xml:space="preserve">
<desc>Created with Fabric.js 3.5.0</desc>
<defs>
</defs>
<rect x="0" y="0" width="100%" height="100%" fill="#ffff00"/>
<g transform="matrix(21.7608 0 0 21.7608 500 500)" id="241443">
<g style="" vector-effect="non-scaling-stroke">
		<g transform="matrix(1 0 0 1 0 0)">
<path style="stroke: none; stroke-width: 1; stroke-dasharray: none; stroke-linecap: butt; stroke-dashoffset: 0; stroke-linejoin: miter; stroke-miterlimit: 4; is-custom-font: none; font-file-url: none; fill: none; fill-rule: nonzero; opacity: 1;" transform=" translate(-12, -12)" d="M 0 0 h 24 v 24 H 0 z" stroke-linecap="round"/>
</g>
		<g transform="matrix(1 0 0 1 0 0)">
<path style="stroke: none; stroke-width: 1; stroke-dasharray: none; stroke-linecap: butt; stroke-dashoffset: 0; stroke-linejoin: miter; stroke-miterlimit: 4; is-custom-font: none; font-file-url: none; fill: rgb(0,0,0); fill-rule: nonzero; opacity: 1;" transform=" translate(-12, -12)" d="M 7 4 V 3 a 1 1 0 0 1 1 -1 h 8 a 1 1 0 0 1 1 1 v 1 h 3 c 0 2.5 -2.5 3.5 -3 3.5 V 10 h 3 c 0 2.5 -2.5 3.5 -3 3.5 V 16 h 3 c 0 2.5 -2.5 3.5 -3 3.5 V 21 a 1 1 0 0 1 -1 1 H 8 a 1 1 0 0 1 -1 -1 v -1.5 c -0.5 0 -3 -1 -3 -3.5 h 3 v -2.5 c -0.5 0 -3 -1 -3 -3.5 h 3 V 7.5 c -0.5 0 -3 -1 -3 -3.5 h 3 z m 5 16 a 2 2 0 1 0 0 -4 a 2 2 0 0 0 0 4 z m 0 -6 a 2 2 0 1 0 0 -4 a 2 2 0 0 0 0 4 z m 0 -6 a 2 2 0 1 0 0 -4 a 2 2 0 0 0 0 4 z" stroke-linecap="round"/>
</g>
</g>
</g>
</svg>